<svg width="24" height="24" viewBox="0 0 24 24" fill="none" xmlns="http://www.w3.org/2000/svg">
<path opacity="0.4" d="M16.9841 2H7C4.25397 2 2 4.25397 2 7.01587V17C2 19.746 4.25397 22 7 22H16.9841C19.746 22 22 19.746 22 16.9841V7.01587C22 4.25397 19.746 2 16.9841 2Z" fill="#637381"/>
<path d="M12.6004 12.6544V14.7456C12.9235 14.6911 13.2329 14.5737 13.5108 14.4C13.8964 14.148 14.0004 13.8816 14.0004 13.7C14.0004 13.5184 13.8964 13.252 13.5108 13C13.2329 12.8263 12.9235 12.7089 12.6004 12.6544ZM10.6644 10.896C10.7068 10.94 10.7564 10.984 10.8116 11.0272C10.978 11.1552 11.1796 11.2544 11.4004 11.3176V9.28241C11.3045 9.3099 11.2109 9.34467 11.1204 9.38641C11.0084 9.43841 10.9044 9.50081 10.8116 9.57281C10.51 9.80641 10.4004 10.0744 10.4004 10.3C10.4004 10.4472 10.4468 10.612 10.562 10.7736C10.5916 10.8144 10.626 10.856 10.6644 10.896Z" fill="#637381"/>
<path fill-rule="evenodd" clip-rule="evenodd" d="M18.3996 12C18.3996 13.6974 17.7253 15.3252 16.5251 16.5255C15.3249 17.7257 13.697 18.4 11.9996 18.4C10.3022 18.4 8.67436 17.7257 7.47413 16.5255C6.27389 15.3252 5.59961 13.6974 5.59961 12C5.59961 10.3026 6.27389 8.67473 7.47413 7.47449C8.67436 6.27426 10.3022 5.59998 11.9996 5.59998C13.697 5.59998 15.3249 6.27426 16.5251 7.47449C17.7253 8.67473 18.3996 10.3026 18.3996 12ZM11.9996 7.19998C12.1587 7.19998 12.3114 7.26319 12.4239 7.37571C12.5364 7.48823 12.5996 7.64085 12.5996 7.79998V8.05278C13.0799 8.13364 13.5336 8.32932 13.922 8.62318C14.2628 8.88718 14.5172 9.21518 14.662 9.58318C14.7157 9.73016 14.7098 9.89229 14.6456 10.035C14.5814 10.1777 14.464 10.2897 14.3184 10.3471C14.1729 10.4045 14.0107 10.4027 13.8664 10.3422C13.7221 10.2817 13.6071 10.1672 13.546 10.0232C13.4697 9.84348 13.3461 9.68783 13.1884 9.57278C13.0122 9.43969 12.8124 9.34116 12.5996 9.28238V11.44C13.158 11.5144 13.706 11.696 14.1668 11.9968C14.7964 12.408 15.1988 13.0128 15.1988 13.7008C15.1988 14.3888 14.7956 14.9936 14.1668 15.4048C13.706 15.7064 13.158 15.8872 12.5988 15.9616V16.2008C12.5988 16.3599 12.5356 16.5125 12.4231 16.625C12.3106 16.7376 12.1579 16.8008 11.9988 16.8008C11.8397 16.8008 11.6871 16.7376 11.5745 16.625C11.462 16.5125 11.3988 16.3599 11.3988 16.2008V15.9608C10.8412 15.8872 10.2932 15.7064 9.83241 15.4048C9.44681 15.1528 9.14681 14.8312 8.97001 14.4544C8.90254 14.3102 8.8951 14.1451 8.94934 13.9955C9.00357 13.8458 9.11504 13.7238 9.25921 13.6564C9.40338 13.5889 9.56845 13.5815 9.7181 13.6357C9.86776 13.6899 9.98974 13.8014 10.0572 13.9456C10.1212 14.084 10.2532 14.2464 10.4892 14.4008C10.7396 14.5648 11.054 14.6832 11.3996 14.7464V12.548C10.9193 12.4671 10.4657 12.2714 10.0772 11.9776C9.51961 11.5464 9.19961 10.9448 9.19961 10.3C9.19961 9.65598 9.51961 9.05358 10.0772 8.62318C10.4656 8.32932 10.9193 8.13364 11.3996 8.05278V7.79998C11.3996 7.64085 11.4628 7.48823 11.5753 7.37571C11.6879 7.26319 11.8405 7.19998 11.9996 7.19998Z" fill="#637381"/>
</svg>
